{
	"asset":{
		"generator":"Khronos glTF Blender I/O v4.0.44",
		"version":"2.0"
	},
	"scene":0,
	"scenes":[
		{
			"name":"Scene",
			"nodes":[
				0
			]
		}
	],
	"nodes":[
		{
			"mesh":0,
			"name":"\u7334\u5934"
		}
	],
	"materials":[
		{
			"doubleSided":true,
			"name":"\u6750\u8d28",
			"pbrMetallicRoughness":{
				"baseColorFactor":[
					0.8002511262893677,
					0.624891459941864,
					0,
					1
				],
				"metallicFactor":0.550000011920929,
				"roughnessFactor":0.3333333134651184
			}
		}
	],
	"meshes":[
		{
			"name":"\u7334\u5934",
			"primitives":[
				{
					"attributes":{
						"POSITION":0,
						"NORMAL":1,
						"TEXCOORD_0":2
					},
					"indices":3,
					"material":0
				}
			]
		}
	],
	"accessors":[
		{
			"bufferView":0,
			"componentType":5126,
			"count":1221,
			"max":[
				1.3671875,
				0.984375,
				0.8515625
			],
			"min":[
				-1.3671875,
				-0.984375,
				-0.8515625
			],
			"type":"VEC3"
		},
		{
			"bufferView":1,
			"componentType":5126,
			"count":1221,
			"type":"VEC3"
		},
		{
			"bufferView":2,
			"componentType":5126,
			"count":1221,
			"type":"VEC2"
		},
		{
			"bufferView":3,
			"componentType":5123,
			"count":2904,
			"type":"SCALAR"
		}
	],
	"bufferViews":[
		{
			"buffer":0,
			"byteLength":14652,
			"byteOffset":0,
			"target":34962
		},
		{
			"buffer":0,
			"byteLength":14652,
			"byteOffset":14652,
			"target":34962
		},
		{
			"buffer":0,
			"byteLength":9768,
			"byteOffset":29304,
			"target":34962
		},
		{
			"buffer":0,
			"byteLength":5808,
			"byteOffset":39072,
			"target":34963
		}
	],
	"buffers":[
		{
			"byteLength":44880,
			"uri":"monkey.bin"
		}
	]
}
