{
	"asset":{
		"generator":"Khronos glTF Blender I/O v4.0.44",
		"version":"2.0"
	},
	"scene":0,
	"scenes":[
		{
			"name":"Scene",
			"nodes":[
				0
			]
		}
	],
	"nodes":[
		{
			"mesh":0,
			"name":"Castle"
		}
	],
	"materials":[
		{
			"doubleSided":true,
			"name":"\u6750\u8d28",
			"pbrMetallicRoughness":{
				"baseColorFactor":[
					0.8000156879425049,
					0.715514063835144,
					0.7783744931221008,
					1
				],
				"metallicFactor":0,
				"roughnessFactor":0.5
			}
		}
	],
	"meshes":[
		{
			"name":"Cube.028",
			"primitives":[
				{
					"attributes":{
						"POSITION":0,
						"NORMAL":1,
						"TEXCOORD_0":2
					},
					"indices":3,
					"material":0
				}
			]
		}
	],
	"accessors":[
		{
			"bufferView":0,
			"componentType":5126,
			"count":31560,
			"max":[
				21.936561584472656,
				153.4046173095703,
				43.75019836425781
			],
			"min":[
				-26.90533447265625,
				0,
				-35.02565002441406
			],
			"type":"VEC3"
		},
		{
			"bufferView":1,
			"componentType":5126,
			"count":31560,
			"type":"VEC3"
		},
		{
			"bufferView":2,
			"componentType":5126,
			"count":31560,
			"type":"VEC2"
		},
		{
			"bufferView":3,
			"componentType":5123,
			"count":54552,
			"type":"SCALAR"
		}
	],
	"bufferViews":[
		{
			"buffer":0,
			"byteLength":378720,
			"byteOffset":0,
			"target":34962
		},
		{
			"buffer":0,
			"byteLength":378720,
			"byteOffset":378720,
			"target":34962
		},
		{
			"buffer":0,
			"byteLength":252480,
			"byteOffset":757440,
			"target":34962
		},
		{
			"buffer":0,
			"byteLength":109104,
			"byteOffset":1009920,
			"target":34963
		}
	],
	"buffers":[
		{
			"byteLength":1119024,
			"uri":"tower.bin"
		}
	]
}
