<?xml version="1.0" standalone="no"?><!DOCTYPE svg PUBLIC "-//W3C//DTD SVG 1.1//EN" "http://www.w3.org/Graphics/SVG/1.1/DTD/svg11.dtd"><svg t="1719026157826" class="icon" viewBox="0 0 1024 1024" version="1.1" xmlns="http://www.w3.org/2000/svg" p-id="4256" xmlns:xlink="http://www.w3.org/1999/xlink" width="48" height="48"><path d="M90.35039205 899.00880511h843.2992159a22.19208431 22.19208431 0 0 0 22.19208552-22.19208553v-44.38416861a22.19208431 22.19208431 0 0 0-22.19208552-22.19208552H90.35039205a22.19208431 22.19208431 0 0 0-22.19208552 22.19208552v44.38416861a22.19208431 22.19208431 0 0 0 22.19208552 22.19208553z m0-310.68918518h843.2992159a22.19208431 22.19208431 0 0 0 22.19208552-22.19208553v-44.38416862a22.19208431 22.19208431 0 0 0-22.19208552-22.19208552H90.35039205a22.19208431 22.19208431 0 0 0-22.19208552 22.19208552v44.38416862a22.19208431 22.19208431 0 0 0 22.19208552 22.19208553z m355.07335381-310.68918519a22.19208431 22.19208431 0 0 1-22.19208431-22.19208552v-44.38416862a22.19208431 22.19208431 0 0 1 22.19208431-22.19208553h488.22586209a22.19208431 22.19208431 0 0 1 22.19208552 22.19208553v44.38416862a22.19208431 22.19208431 0 0 1-22.19208552 22.19208552H445.42374586zM68.15830653 123.04037267a35.50733563 35.50733563 0 0 1 53.12785066-30.82480541l203.61237724 116.35309985a35.50733563 35.50733563 0 0 1 0 61.64961083l-203.61237724 116.35309985A35.50733563 35.50733563 0 0 1 68.15830653 355.74657238V123.04037267z" fill="#434343" p-id="4257"></path></svg>