<?xml version="1.0" standalone="no"?><!DOCTYPE svg PUBLIC "-//W3C//DTD SVG 1.1//EN" "http://www.w3.org/Graphics/SVG/1.1/DTD/svg11.dtd"><svg t="1719021244002" class="icon" viewBox="0 0 1024 1024" version="1.1" xmlns="http://www.w3.org/2000/svg" p-id="6213" xmlns:xlink="http://www.w3.org/1999/xlink" width="48" height="48"><path d="M341.333333 746.666667a21.333333 21.333333 0 0 1-21.333333 21.333333h-42.666667a21.333333 21.333333 0 0 1-21.333333-21.333333v-469.333334a21.333333 21.333333 0 0 1 21.333333-21.333333h42.666667a21.333333 21.333333 0 0 1 21.333333 21.333333zM768 280.32a32.853333 32.853333 0 0 0-15.786667-27.733333l-5.12-2.56a31.146667 31.146667 0 0 0-34.133333 0l-314.453333 222.293333a32 32 0 0 0-13.653334 26.026667v26.453333a32 32 0 0 0 13.653334 26.026667l314.453333 221.013333a31.146667 31.146667 0 0 0 34.133333 0l5.12-2.56a32.426667 32.426667 0 0 0 15.786667-27.733333z" p-id="6214"></path></svg>